<?xml version="1.0" encoding="UTF-8"?>
<svg id="_图层_2" data-name="图层 2" xmlns="http://www.w3.org/2000/svg" viewBox="0 0 30 66.7" preserveAspectRatio="none">
  <defs>
    <style>
      .cls-1 {
        fill: #1d1d1f;
      }
    </style>
  </defs>
  <g id="_图层_1-2" data-name="图层 1">
    <path class="cls-1" d="M30,0H6c-1.36,0-2.61.45-3.61,1.21-.4.3-.77.66-1.08,1.06-.82,1.02-1.31,2.32-1.31,3.73v54.7c0,1.41.49,2.71,1.32,3.74.31.4.67.75,1.07,1.05,1,.76,2.25,1.21,3.61,1.21h24v-1.5H6s-.11,0-.16-.01l11.33-5.96s.01-.01.02-.01c4.16.18,8.45.3,12.81.33v-1.36c-4.27-.04-8.53-.15-12.77-.33-.11-.03-.23-.03-.35.01-.11-.01-.21-.02-.31-.05l-1.1-.26c-.14-.05-.26-.1-.39-.15l-.1-.04c-.16-.07-.33-.16-.51-.26-.15-.08-.3-.16-.46-.27-.3-.2-.6-.44-.84-.68-.22-.24-.48-.53-.7-.86-.11-.16-.21-.32-.29-.46l-.08-.15c-.06-.12-.12-.23-.17-.38-.07-.16-.14-.33-.19-.51-.05-.17-.11-.36-.14-.53l-.02-.09c-.03-.16-.05-.31-.07-.5-.04-.18-.03-.35-.03-.53,0-.08-.02-.15-.04-.22V13.81c.02-.07.04-.15.04-.23,0-.18.01-.37.03-.57.02-.19.05-.39.09-.58.06-.34.18-.69.35-1.1.07-.17.15-.34.25-.52.08-.18.18-.35.29-.51.2-.31.44-.61.73-.9.26-.26.56-.51.9-.76.31-.22.64-.41.99-.57.1-.04.22-.09.33-.13l.36-.13c.11-.04.23-.08.35-.1l.75-.13c.13-.02.28-.03.41-.03,4.17-.16,8.41-.26,12.69-.28v-1.36c-4.21.03-8.43.12-12.61.27L6.54,1.5h23.46V0ZM1.67,61.92c-.11-.39-.17-.8-.17-1.22V6c0-.46.07-.91.2-1.33l8.38,9.14v38.09L1.67,61.92ZM12.23,57.1c.32.33.68.63,1.05.87.16.1.34.21.58.35l.6.3c.17.06.36.13.56.2l-11.1,5.86c-.65-.33-1.2-.82-1.61-1.41l8-9.54c.04.17.09.34.15.52.08.2.15.41.25.63l.06.13c.08.15.16.32.23.43.11.23.23.42.36.6.25.38.54.74.87,1.06ZM15,6.65c-.15.05-.31.11-.47.18-.42.21-.82.44-1.2.7-.35.25-.69.54-1.07.92-.35.35-.66.72-.89,1.08-.14.2-.26.4-.38.61-.11.21-.2.42-.3.64-.18.39-.32.81-.42,1.27L2.33,3.4c.44-.63,1.05-1.13,1.75-1.46l10.92,4.71Z"/>
  </g>
</svg>